<?xml version="1.0" encoding="UTF-8" standalone="no"?>
<!-- Created with Inkscape (http://www.inkscape.org/) -->

<svg
   width="894.57874mm"
   height="284.16025mm"
   viewBox="0 0 894.57874 284.16025"
   version="1.1"
   id="svg1"
   xml:space="preserve"
   inkscape:version="1.4.2 (ebf0e940, 2025-05-08)"
   sodipodi:docname="cvpr_highlight.svg"
   xmlns:inkscape="http://www.inkscape.org/namespaces/inkscape"
   xmlns:sodipodi="http://sodipodi.sourceforge.net/DTD/sodipodi-0.dtd"
   xmlns="http://www.w3.org/2000/svg"
   xmlns:svg="http://www.w3.org/2000/svg"><sodipodi:namedview
     id="namedview1"
     pagecolor="#505050"
     bordercolor="#eeeeee"
     borderopacity="1"
     inkscape:showpageshadow="0"
     inkscape:pageopacity="0"
     inkscape:pagecheckerboard="0"
     inkscape:deskcolor="#505050"
     inkscape:document-units="mm"
     inkscape:zoom="0.13826924"
     inkscape:cx="875.10428"
     inkscape:cy="1193.324"
     inkscape:window-width="1920"
     inkscape:window-height="1027"
     inkscape:window-x="0"
     inkscape:window-y="25"
     inkscape:window-maximized="1"
     inkscape:current-layer="g14"
     showguides="true"><sodipodi:guide
       position="460.00926,203.83654"
       orientation="0,-1"
       id="guide15"
       inkscape:locked="false" /><sodipodi:guide
       position="515.49153,68.061799"
       orientation="0,-1"
       id="guide16"
       inkscape:locked="false" /><sodipodi:guide
       position="665.70423,171.51285"
       orientation="0,-1"
       id="guide17"
       inkscape:locked="false" /><sodipodi:guide
       position="624.48006,166.41977"
       orientation="0,-1"
       id="guide18"
       inkscape:locked="false" /></sodipodi:namedview><defs
     id="defs1"><rect
       x="-549.65228"
       y="-263.97775"
       width="2603.616"
       height="979.97217"
       id="rect2" /></defs><g
     inkscape:label="Layer 1"
     inkscape:groupmode="layer"
     id="layer1"
     transform="translate(351.13406,90.893021)"><g
       id="g1"><rect
         style="fill:#a2ccf4;fill-opacity:1;stroke-width:15;stroke-linecap:square;stroke-dasharray:none"
         id="rect1"
         width="894.57874"
         height="284.16025"
         x="-351.13406"
         y="-90.893021" /><g
         id="g2"
         inkscape:label="stars"><path
           style="fill:#000000;fill-opacity:1;stroke-width:15;stroke-linecap:square;stroke-dasharray:none"
           d="m -189.86907,-83.717257 9.48824,23.088362 22.83549,9.235369 -22.83549,9.488224 -9.48824,22.835508 -9.23536,-22.835508 -23.08837,-9.488224 23.08837,-9.235369 z"
           id="path2"
           sodipodi:nodetypes="ccccccccc" /><path
           style="fill:none;fill-opacity:1;stroke:#000000;stroke-width:11.9771;stroke-linecap:square;stroke-dasharray:none;stroke-opacity:1"
           d="m -275.28856,-50.637342 15.92933,38.761907 38.33738,15.5048024 -38.33738,15.9293096 -15.92933,38.337403 -15.50479,-38.337403 -38.76192,-15.9293096 38.76192,-15.5048024 z"
           id="path2-2"
           sodipodi:nodetypes="ccccccccc" /><path
           style="fill:#000000;fill-opacity:1;stroke-width:15;stroke-linecap:square;stroke-dasharray:none"
           d="m -190.40944,26.070104 9.7691,23.771768 23.51141,9.508732 -23.51141,9.769071 -9.7691,23.511429 -9.50871,-23.511429 -23.77178,-9.769071 23.77178,-9.508732 z"
           id="path2-0"
           sodipodi:nodetypes="ccccccccc" /></g><g
         id="g3"
         inkscape:label="text"><path
           style="font-weight:bold;font-size:113.333px;line-height:0.6;font-family:Arial;-inkscape-font-specification:'Arial Bold';letter-spacing:-1.73453px;white-space:pre;fill:#000000;fill-opacity:1;stroke:none;stroke-width:1;stroke-linecap:square;stroke-dasharray:none;stroke-opacity:1"
           d="m 314.28296,127.52217 c 0,3.54537 -0.65699,9.66301 9.02033,9.66301 6.2783,0 8.22102,-4.01938 8.22102,-10.34067 V 108.2607 c -4.84054,5.23813 -9.94589,6.01195 -18.20736,6.18108 -8.26148,0.16913 -16.87029,-5.31914 -20.90602,-12.01961 -4.03573,-6.700469 -4.6386,-22.0521 -4.6386,-35.203547 0,-16.485601 1.11676,-25.613063 7.12757,-34.318956 6.05777,-8.705882 10.70585,-10.84985 19.67025,-11.145286 11.34477,-0.373884 18.03145,5.281471 18.2801,8.487979 v -8.657123 h 25.29089 v 93.525073 c 0,11.60784 -0.0513,14.71387 -1.50708,20.45605 -1.45574,5.74218 -3.75217,8.6427 -6.3819,11.91513 -2.62973,3.27242 -6.57453,5.83479 -10.98872,7.68711 -4.36724,1.85231 -9.90846,2.77847 -16.62367,2.77847 -12.67906,0 -23.60744,-6.99794 -25.90187,-8.97206 -2.29442,-1.97412 -8.96557,-7.3663 -8.96557,-21.45284 z m -2.14148,-58.486241 c -0.009,8.777136 -1.21784,24.142884 10.25759,24.142884 10.37052,0 10.50731,-14.856756 10.67982,-23.734558 0.17252,-8.877801 1.42189,-25.265965 -10.20803,-25.265965 -12.01366,0 -10.7205,16.080502 -10.72938,24.857639 z"
           id="path10-4-0"
           sodipodi:nodetypes="cssczzscscccssscszcczszsz" /><path
           style="font-weight:bold;font-size:113.333px;line-height:0.6;font-family:Arial;-inkscape-font-specification:'Arial Bold';letter-spacing:-1.73453px;white-space:pre;fill:#000000;fill-opacity:1;stroke:none;stroke-width:16.8046;stroke-linecap:square"
           d="m 402.21683,-10.569305 0,37.416766 c 5.57468,-7.195688 12.51273,-5.267195 17.17899,-5.267195 11.78155,0 18.45862,2.394606 21.65108,8.012201 2.34046,4.118391 3.99685,8.344048 3.99685,30.737562 V 125.20543 H 419.05657 V 60.627163 c 0,-7.840523 0.43171,-15.498117 -9.10787,-15.498117 -10.40841,0 -9.08494,9.749101 -9.08494,15.498117 V 125.20543 H 376.56789 V -10.569305 Z"
           id="path6-0"
           sodipodi:nodetypes="ccsscccssscccc" /><path
           style="font-weight:bold;font-size:113.333px;line-height:0.6;font-family:Arial;-inkscape-font-specification:'Arial Bold';letter-spacing:-1.73453px;white-space:pre;fill:#000000;fill-opacity:1;stroke:none;stroke-width:18.2651;stroke-linecap:square"
           d="m 507.16718,26.847461 v 20.745941 h -16.06202 l 0,37.416832 c 0,8.026703 0.13943,12.719235 0.41829,14.077596 0.33463,1.29663 1.03176,2.37714 2.09141,3.24154 1.11542,0.86442 2.45392,1.29663 4.0155,1.29663 2.17506,0 6.00165,-0.13275 9.53682,-0.13275 v 21.71218 h -16.64761 c -4.23858,0 -8.05888,-0.7718 -11.46091,-2.31539 -3.40203,-1.60533 -5.91172,-3.64288 -7.52907,-6.11264 -1.56158,-2.53149 -2.64911,-5.9274 -3.26259,-10.18773 -0.50194,-3.02545 -0.75291,-9.13809 -0.75291,-18.337929 l 0,-40.658339 H 456.72244 V 26.847461 h 10.79165 l 0,-30.5596341 h 23.59107 l 0,30.5596341 z"
           id="path12"
           sodipodi:nodetypes="cccsccsccscccscccccccc" /><g
           id="g13"
           transform="matrix(1.2888727,0,0,1,-74.602333,3.469964e-6)"
           style="fill:#000000;fill-opacity:1;stroke:none"><path
             style="font-weight:bold;font-size:113.333px;line-height:0.6;font-family:Arial;-inkscape-font-specification:'Arial Bold';letter-spacing:-1.73453px;white-space:pre;fill:#000000;fill-opacity:1;stroke:none;stroke-width:11.483;stroke-linecap:square"
             d="m -266.91311,-198.72654 v -58.76936 h 15.55008 v 58.76936 z"
             transform="matrix(1.3554867,0,0,1.6736266,610.68254,457.79945)"
             id="path9"
             sodipodi:nodetypes="ccccc" /><path
             style="font-weight:bold;font-size:113.333px;line-height:0.6;font-family:Arial;-inkscape-font-specification:'Arial Bold';letter-spacing:-1.73453px;white-space:pre;fill:#000000;fill-opacity:1;stroke:none;stroke-width:18.2415;stroke-linecap:square"
             d="M 248.88537,16.216951 V -10.569305 H 269.9633 V 16.216951 Z"
             id="path8" /></g><path
           style="font-weight:bold;font-size:113.333px;line-height:0.6;font-family:Arial;-inkscape-font-specification:'Arial Bold';letter-spacing:-1.73453px;white-space:pre;fill:#000000;fill-opacity:1;stroke:none;stroke-width:1;stroke-linecap:square;stroke-dasharray:none;stroke-opacity:1"
           d="m 46.590265,127.52217 c 0,3.54537 -0.656991,9.66301 9.02032,9.66301 6.278306,0 8.221029,-4.01938 8.221029,-10.34067 V 108.2607 c -4.84054,5.23813 -9.945889,6.01195 -18.207369,6.18108 -8.26148,0.16913 -16.870284,-5.31914 -20.906014,-12.01961 -4.03573,-6.700469 -4.638606,-22.0521 -4.638606,-35.203547 0,-16.485601 1.11676,-25.613063 7.12758,-34.318956 6.05777,-8.705882 10.70585,-10.84985 19.67025,-11.145286 11.34477,-0.373884 18.03145,5.281471 18.2801,8.487979 v -8.657123 h 25.29089 v 93.525073 c 0,11.60784 -0.05133,14.71387 -1.507082,20.45605 -1.45574,5.74218 -3.752172,8.6427 -6.381902,11.91513 -2.62973,3.27242 -6.574536,5.83479 -10.988726,7.68711 -4.36723,1.85231 -9.90845,2.77847 -16.62366,2.77847 -12.67906,0 -23.60744,-6.99794 -25.90187,-8.97206 -2.29443,-1.97412 -8.96558,-7.3663 -8.96558,-21.45284 z M 44.448783,69.035929 c -0.0089,8.777136 -1.217845,24.142884 10.257592,24.142884 10.37052,0 10.507308,-14.856756 10.67982,-23.734558 0.172511,-8.877801 1.421886,-25.265965 -10.20803,-25.265965 -12.013669,0 -10.720503,16.080502 -10.729382,24.857639 z"
           id="path10-4"
           sodipodi:nodetypes="cssczzscscccssscszcczszsz" /><path
           style="font-weight:bold;font-size:113.333px;line-height:0.6;font-family:Arial;-inkscape-font-specification:'Arial Bold';letter-spacing:-1.73453px;white-space:pre;fill:#000000;fill-opacity:1;stroke:none;stroke-width:16.8046;stroke-linecap:square"
           d="m 134.52413,-10.569305 v 38.943159 c 5.57468,-7.195688 12.51273,-6.793588 17.17899,-6.793588 11.78155,0 18.45862,2.394606 21.65108,8.012201 2.34046,4.118391 3.99685,8.344048 3.99685,30.737562 V 125.20543 H 151.36387 V 60.627163 c 0,-7.840523 0.43171,-15.498117 -9.10787,-15.498117 -10.40841,0 -9.08494,9.749101 -9.08494,15.498117 V 125.20543 H 108.87519 V -10.569305 Z"
           id="path6"
           sodipodi:nodetypes="ccsscccssscccc" /><g
           id="g12"
           transform="matrix(1.2567758,0,0,1,-2.9784303,3.469964e-6)"
           style="fill:#000000;fill-opacity:1;stroke:none"><path
             style="font-weight:bold;font-size:113.333px;line-height:0.6;font-family:Arial;-inkscape-font-specification:'Arial Bold';letter-spacing:-1.73453px;white-space:pre;fill:#000000;fill-opacity:1;stroke:none;stroke-width:11.483;stroke-linecap:square"
             d="m -461.40667,-198.72654 v -58.76936 h 15.55008 v 58.76936 z"
             id="path4"
             transform="matrix(1.3554867,0,0,1.6736266,610.68254,457.79945)" /><path
             style="font-weight:bold;font-size:113.333px;line-height:0.6;font-family:Arial;-inkscape-font-specification:'Arial Bold';letter-spacing:-1.73453px;white-space:pre;fill:#000000;fill-opacity:1;stroke:none;stroke-width:18.6965;stroke-linecap:square"
             d="M -14.748064,17.570026 V -10.569305 H 6.3298621 v 28.139331 z"
             id="path3" /></g><path
           style="font-weight:bold;font-size:113.333px;line-height:0.6;font-family:Arial;-inkscape-font-specification:'Arial Bold';letter-spacing:-1.73453px;white-space:pre;stroke-width:16.7546;stroke-linecap:square;stroke:none;fill:#000000;fill-opacity:1"
           d="M -123.11234,125.20543 V -10.569305 h 30.403846 v 53.439299 h 22.649006 v -53.439299 h 29.447079 V 125.20543 H -70.059488 V 65.838711 h -22.649006 v 59.366719 z"
           id="text1"
           sodipodi:nodetypes="ccccccccccccc" /><g
           id="g14"
           style="fill:#000000;fill-opacity:1;stroke:none"
           transform="translate(0,0.52717051)"
           inkscape:label="l2"><path
             id="path7"
             style="font-weight:bold;font-size:113.333px;line-height:0.6;font-family:Arial;-inkscape-font-specification:'Arial Bold';letter-spacing:-1.73453px;white-space:pre;fill:#000000;fill-opacity:1;stroke:none;stroke-width:17.1314;stroke-linecap:square"
             d="M 194.47288,-10.569381 V 95.306327 c 0,33.486903 38.02197,29.193053 38.02197,29.193053 0,0 0.11938,-14.34046 0.11938,-22.24464 -9.86989,0 -11.62152,-5.497188 -11.62152,-6.948413 V -10.569381 Z" /></g></g></g></g></svg>
